<?xml version="1.0" standalone="no"?><!DOCTYPE svg PUBLIC "-//W3C//DTD SVG 1.1//EN" "http://www.w3.org/Graphics/SVG/1.1/DTD/svg11.dtd"><svg t="1770974187672" class="icon" viewBox="0 0 1164 1024" version="1.1" xmlns="http://www.w3.org/2000/svg" p-id="2409" xmlns:xlink="http://www.w3.org/1999/xlink" width="227.34375" height="200"><path d="M1097.09462 260.100991c-54.825278 32.580998-668.688862 397.058995-689.586704 397.058995-21.87962 0-28.976471-22.875423-28.976471-22.875423s-98.500365-199.202716-103.353152-211.082228c-5.974819-14.642515-19.116616-40.95416-2.734952-48.471773 14.65654-6.718165 32.30049 8.47134 32.300489 8.47134s61.375138 46.466141 108.219965 76.887228c46.844827 30.449137 71.066688 4.810711 71.066688 4.810711l573.021628-259.203366C951.6232 81.291202 778.227214 0 582.053984 0 260.59188 0-0.014025 218.010774-0.014025 486.947765c0 154.223268 85.80738 291.602033 219.539542 380.817585 0.743346 8.28901 0.504914 20.603308-3.338045 37.742344-7.980451 35.65256-24.53042 82.623615-24.530419 82.623615s-9.691549 22.06195 0 31.683372c9.705575 9.635448 27.391601 0 35.947093-2.819105 8.274984-2.734952 113.802073-72.385075 144.054854-76.059729A681.171466 681.171466 0 0 0 582.053984 973.881505c321.476129 0 582.068009-218.010774 582.068009-486.93374 0-81.93637-24.277963-159.09008-67.027373-226.846774z" fill="#10AD04" p-id="2410"></path></svg>